<?xml version="1.0" encoding="utf-8"?>
<!-- Generator: Adobe Illustrator 16.0.0, SVG Export Plug-In . SVG Version: 6.00 Build 0)  -->
<!DOCTYPE svg PUBLIC "-//W3C//DTD SVG 1.0//EN" "http://www.w3.org/TR/2001/REC-SVG-20010904/DTD/svg10.dtd">
<svg version="1.0" xmlns="http://www.w3.org/2000/svg" xmlns:xlink="http://www.w3.org/1999/xlink" x="0px" y="0px" width="45px"
	 height="49.968px" viewBox="0 0 45 49.968" enable-background="new 0 0 45 49.968" xml:space="preserve">
<g id="imagem_fundo">
</g>
<g id="Fundo">
</g>
<g id="Layer_1">
	<g>
		<path fill-rule="evenodd" clip-rule="evenodd" fill="#529AEB" d="M43.341,48.16c0.802,0.11,1.756-0.026,1.651,1.005
			c-0.101,1-1.013,0.771-1.685,0.771c-13.876,0.006-27.753,0.004-41.63,0.004c-0.202,0-0.443,0.071-0.597-0.015
			c-0.391-0.219-0.983-0.453-1.057-0.781c-0.144-0.637,0.382-0.915,1.008-0.92c0.162-0.001,0.323-0.032,0.623-0.065
			c0-0.426,0-0.815,0-1.206c0-5.128-0.001-10.256,0.001-15.384c0-1.508,0.165-1.67,1.676-1.67c3.818-0.003,7.636-0.001,11.642-0.001
			c0-1.15,0-2.239,0-3.327c0.001-1.953,0.035-1.989,1.946-2.002c0.265-0.001,0.529,0,0.945,0c-0.118-1.66,0.023-3.197,1.902-3.652
			c0.347-1.257,0.011-2.014-1.191-2.581c-1.394-0.658-2.29-1.907-2.964-3.305c-0.168-0.351-0.511-0.704-0.862-0.867
			c-2.871-1.34-4.28-3.624-4.464-6.731c-0.004-0.067-0.002-0.133-0.004-0.201c-0.071-3.689,0.493-4.296,4.173-4.498
			c0.129-0.006,0.256-0.044,0.521-0.093c0-0.497,0.008-0.987-0.001-1.477C14.96,0.378,15.317-0.002,16.125,0
			c4.256,0.01,8.514,0.009,12.771,0.001C29.645,0,30.017,0.344,30.019,1.09c0,0.498,0,0.994,0,1.661c0.711,0,1.335-0.03,1.956,0.006
			c1.305,0.075,2.37,0.802,2.572,2.006c0.489,2.925,0.303,5.868-2.129,7.857c-1.724,1.409-3.396,2.753-4.608,4.642
			c-0.308,0.479-0.869,0.908-1.407,1.1c-1.242,0.444-1.47,1.285-1.181,2.528c1.808,0.46,2.062,1.928,1.911,3.679
			c0.59,0,1.083,0.014,1.575-0.003c0.926-0.03,1.332,0.386,1.322,1.331c-0.026,2.715-0.008,5.431-0.008,8.146
			c0,0.358,0,0.717,0,1.161c1.541,0,2.943,0,4.345,0c2.48,0,4.961-0.001,7.442,0.001c1.296,0.001,1.527,0.22,1.531,1.504
			c0.006,3.419,0.001,6.838,0.002,10.257C43.341,47.33,43.341,47.695,43.341,48.16z M16.748,48.16c3.852,0,7.649,0,11.486,0
			c0-7.279,0-14.492,0-21.707c-3.869,0-7.666,0-11.486,0C16.748,33.717,16.748,40.905,16.748,48.16z M14.894,48.178
			c0-5.564,0-11.009,0-16.454c-3.849,0-7.616,0-11.385,0c0,5.522,0,10.964,0,16.454C7.329,48.178,11.071,48.178,14.894,48.178z
			 M16.718,1.827c0,3.566-0.13,7.014,0.039,10.447c0.151,3.078,2.589,5.367,5.407,5.452c3.19,0.097,5.758-1.894,6.015-5.19
			c0.272-3.492,0.08-7.02,0.085-10.53c0-0.052-0.077-0.104-0.137-0.179C24.372,1.827,20.6,1.827,16.718,1.827z M30.122,37.015
			c0,3.775,0,7.462,0,11.125c3.862,0,7.625,0,11.379,0c0-3.752,0-7.417,0-11.125C37.689,37.015,33.95,37.015,30.122,37.015z
			 M14.915,4.565c-2.637-0.268-2.876-0.059-2.868,2.38c0.001,0.234-0.013,0.47,0.011,0.701c0.197,1.95,1,3.518,2.857,4.604
			C14.915,9.595,14.915,7.108,14.915,4.565z M30.088,12.264c2.104-1.312,2.877-3.134,2.864-5.388
			c-0.012-2.325-0.285-2.584-2.622-2.363c-0.061,0.005-0.117,0.053-0.243,0.114C30.088,7.084,30.088,9.572,30.088,12.264z
			 M25.309,24.527c0.164-1.831,0.136-1.861-1.563-1.863c-0.868-0.001-1.736-0.001-2.604,0c-1.593,0.003-1.746,0.207-1.367,1.863
			C21.589,24.527,23.413,24.527,25.309,24.527z M23.324,20.845c0-0.479,0-0.862,0-1.295c-0.563,0-1.072,0-1.631,0
			c0,0.442,0,0.845,0,1.295C22.248,20.845,22.729,20.845,23.324,20.845z"/>
		<path fill-rule="evenodd" clip-rule="evenodd" fill="#529AEB" d="M6.664,13.767c-0.138,0.277-0.189,0.486-0.32,0.622
			c-0.74,0.77-1.455,1.576-2.277,2.248c-0.249,0.203-0.815,0.015-1.234,0.006c0.016-0.416-0.131-0.963,0.078-1.222
			c0.648-0.801,1.403-1.524,2.183-2.203c0.218-0.189,0.695-0.233,0.988-0.139C6.327,13.158,6.479,13.533,6.664,13.767z"/>
		<path fill-rule="evenodd" clip-rule="evenodd" fill="#529AEB" d="M39.225,12.873c0.236,0.095,0.427,0.118,0.537,0.225
			c0.836,0.814,1.693,1.612,2.453,2.493c0.166,0.193,0.098,0.832-0.098,1.026c-0.206,0.202-0.845,0.289-1.035,0.125
			c-0.885-0.756-1.706-1.594-2.484-2.461c-0.16-0.178-0.136-0.646-0.024-0.907C38.671,13.148,39.013,13.026,39.225,12.873z"/>
		<path fill-rule="evenodd" clip-rule="evenodd" fill="#529AEB" d="M4.08,8.454c-0.499,0-1.034,0.11-1.487-0.035
			C2.232,8.304,1.796,7.913,1.725,7.575c-0.047-0.227,0.462-0.803,0.76-0.831c1.088-0.101,2.197-0.1,3.286,0.002
			c0.295,0.027,0.795,0.595,0.751,0.83C6.459,7.91,6.023,8.313,5.667,8.418C5.177,8.562,4.612,8.454,4.08,8.454z"/>
		<path fill-rule="evenodd" clip-rule="evenodd" fill="#529AEB" d="M40.857,8.452c-0.532,0-1.092,0.1-1.588-0.035
			c-0.332-0.09-0.79-0.507-0.796-0.787c-0.007-0.3,0.429-0.848,0.708-0.873c1.122-0.102,2.264-0.103,3.385-0.001
			c0.277,0.025,0.71,0.587,0.696,0.886c-0.013,0.282-0.479,0.687-0.816,0.777C41.949,8.55,41.391,8.452,40.857,8.452z"/>
		<path fill-rule="evenodd" clip-rule="evenodd" fill="#529AEB" d="M23.324,20.845c-0.595,0-1.077,0-1.631,0
			c0-0.451,0-0.854,0-1.295c0.559,0,1.068,0,1.631,0C23.324,19.983,23.324,20.366,23.324,20.845z"/>
		<path fill-rule="evenodd" clip-rule="evenodd" fill="#529AEB" d="M23.348,40.199c0.38,0.023,0.709-0.053,0.895,0.076
			c0.337,0.234,0.817,0.597,0.811,0.896c-0.006,0.295-0.521,0.792-0.853,0.826c-1.058,0.108-2.134,0.047-3.203,0.044
			c-0.588-0.001-1.098-0.153-1.115-0.859c-0.016-0.681,0.421-0.924,1.042-0.936c0.198-0.004,0.396-0.029,0.657-0.049
			c0-1.472,0-2.923,0-4.44c-0.174,0.052-0.341,0.162-0.476,0.129c-0.355-0.087-0.859-0.141-0.997-0.384
			c-0.144-0.252-0.045-0.797,0.154-1.058c0.441-0.579,0.979-1.102,1.545-1.563c0.246-0.199,0.747-0.356,0.974-0.236
			c0.275,0.147,0.531,0.604,0.54,0.933c0.051,1.836,0.025,3.676,0.026,5.514C23.348,39.454,23.348,39.813,23.348,40.199z"/>
	</g>
</g>
</svg>
