<?xml version="1.0" encoding="utf-8"?>
<!-- Generator: Adobe Illustrator 16.0.0, SVG Export Plug-In . SVG Version: 6.00 Build 0)  -->
<!DOCTYPE svg PUBLIC "-//W3C//DTD SVG 1.1//EN" "http://www.w3.org/Graphics/SVG/1.1/DTD/svg11.dtd">
<svg version="1.1" xmlns="http://www.w3.org/2000/svg" xmlns:xlink="http://www.w3.org/1999/xlink" x="0px" y="0px" width="45px"
	 height="45.071px" viewBox="0 0 45 45.071" enable-background="new 0 0 45 45.071" xml:space="preserve">
<g id="imagem_fundo">
</g>
<g id="Fundo">
</g>
<g id="Layer_1">
	<g>
		<path fill-rule="evenodd" clip-rule="evenodd" fill="#529AEB" d="M9.546,19.142c1.215,0,2.324,0.015,3.434-0.006
			c0.64-0.013,1.042,0.124,1.126,0.885c0.094,0.849,0.779,1.392,1.555,1.406c0.771,0.014,1.474-0.522,1.584-1.36
			c0.101-0.771,0.497-0.956,1.189-0.935c1.106,0.035,2.214,0.01,3.364,0.01c0-1.151,0-2.197,0-3.282
			c-1.213-0.442-2.023-1.255-2.202-2.589c-0.16-1.207,0.529-2.341,1.729-3.008c0.238-0.132,0.476-0.483,0.496-0.749
			c0.063-0.843,0.022-1.694,0.022-2.756c-1.011,0.186-1.953,0.296-2.86,0.536c-1.78,0.471-3.365,1.339-4.803,2.497
			c-0.238,0.192-0.649,0.354-0.918,0.286c-0.556-0.143-0.544-0.762,0.016-1.235c1.995-1.685,4.287-2.771,6.86-3.168
			c4.632-0.718,8.708,0.512,12.185,3.674c0.194,0.177,0.454,0.347,0.532,0.572c0.09,0.259,0.125,0.69-0.024,0.836
			c-0.158,0.157-0.596,0.161-0.844,0.061c-0.278-0.112-0.479-0.417-0.718-0.634c-2.255-2.042-4.896-3.157-8.07-3.364
			c0,1.128-0.029,2.204,0.011,3.277c0.027,0.753-0.155,1.212-1.009,1.329c-0.83,0.113-1.265,0.705-1.271,1.546
			c-0.007,0.853,0.472,1.454,1.271,1.554c0.89,0.111,1.028,0.575,1.006,1.314c-0.031,1.053-0.008,2.108-0.008,3.294
			c1.039,0,2.024,0.015,3.008-0.018c0.14-0.004,0.325-0.217,0.399-0.375c0.567-1.202,1.477-1.886,2.829-1.854
			c1.359,0.032,2.22,0.79,2.731,2.003c0.031,0.079,0.089,0.148,0.133,0.218c1.029,0,2.051,0,3.346,0
			c-0.339-1.372-0.61-2.666-0.989-3.928c-0.2-0.665-0.57-1.281-0.892-1.905c-0.232-0.448-0.459-0.954,0.145-1.168
			c0.246-0.087,0.824,0.234,0.986,0.519c2.378,4.182,2.582,8.51,0.692,12.918c-1.291,3.012-3.4,5.312-6.284,6.885
			c-1.566,0.856-1.741,1.213-1.459,3.024c1.606,0.375,2.15,0.891,2.176,2.063c0.026,1.193-0.505,1.721-2.265,2.186
			c0,0.821,0.008,1.667-0.002,2.512c-0.021,1.825-1.032,2.846-2.828,2.853c-1.644,0.006-3.287,0.01-4.93-0.001
			c-1.597-0.012-2.65-1.03-2.701-2.623c-0.029-0.905-0.005-1.813-0.005-2.698c-1.837-0.629-2.318-1.122-2.265-2.276
			c0.053-1.123,0.642-1.667,2.16-1.996c0.326-1.763,0.121-2.199-1.425-3.032C8.33,28.431,5.914,18.912,10.55,11.905
			c0.129-0.196,0.228-0.47,0.412-0.558c0.297-0.141,0.651-0.156,0.982-0.224c0.033,0.317,0.191,0.695,0.074,0.942
			c-0.312,0.658-0.778,1.24-1.116,1.888C10.083,15.531,9.637,17.216,9.546,19.142z M23.202,20.438c0,1.052-0.024,2.013,0.021,2.969
			c0.01,0.184,0.261,0.425,0.458,0.521c1.139,0.558,1.772,1.467,1.773,2.714c0.001,1.25-0.646,2.154-1.778,2.71
			c-0.184,0.09-0.447,0.284-0.45,0.433c-0.03,1.894-0.02,3.789-0.02,5.696c1.124,0,2.133,0,3.125,0
			c0.034-0.113,0.06-0.168,0.063-0.224c0.009-0.146,0.021-0.293,0.011-0.439c-0.109-1.658,0.592-2.793,2.114-3.491
			c0.686-0.314,1.329-0.752,1.924-1.222c3.084-2.437,4.756-5.628,5.075-9.667c-1.234,0-2.399-0.013-3.564,0.005
			c-0.586,0.009-0.909-0.172-1.008-0.817c-0.141-0.917-0.811-1.455-1.615-1.439c-0.781,0.016-1.394,0.522-1.542,1.408
			c-0.112,0.668-0.451,0.868-1.081,0.852C25.573,20.417,24.436,20.438,23.202,20.438z M9.514,20.48
			c0.416,4.477,2.338,7.985,6.08,10.277c1.863,1.141,3.549,2.152,2.986,4.729c1.167,0,2.174,0,3.265,0
			c0-2.042,0.018-4.031-0.01-6.02c-0.01-0.716,0.148-1.163,0.967-1.27c0.83-0.107,1.278-0.674,1.314-1.517
			c0.035-0.809-0.457-1.498-1.317-1.609c-0.84-0.108-0.979-0.555-0.962-1.26c0.029-1.101,0.008-2.204,0.008-3.373
			c-0.917,0-1.706,0.035-2.49-0.012c-0.544-0.032-0.818,0.135-1.053,0.653c-0.49,1.079-1.392,1.633-2.591,1.644
			c-1.24,0.013-2.111-0.592-2.681-1.667c-0.105-0.199-0.191-0.409-0.27-0.576C11.672,20.48,10.651,20.48,9.514,20.48z
			 M26.366,39.602c-0.771,0-1.471-0.007-2.169,0.002c-0.492,0.007-0.987-0.133-0.896-0.673c0.046-0.27,0.582-0.623,0.917-0.646
			c1.168-0.08,2.345-0.028,3.52-0.035c0.454-0.003,0.939-0.018,0.95-0.64c0.014-0.631-0.438-0.764-0.955-0.765
			c-3.492-0.002-6.983-0.003-10.476,0.001c-0.508,0-0.988,0.127-0.964,0.755c0.022,0.583,0.493,0.65,0.963,0.65
			c1.173,0.001,2.35-0.042,3.519,0.033c0.308,0.019,0.793,0.357,0.846,0.619c0.114,0.567-0.37,0.701-0.86,0.699
			c-0.693-0.004-1.386-0.001-2.084-0.001c0,0.522,0,0.922,0,1.367c2.577,0,5.113,0,7.689,0
			C26.366,40.524,26.366,40.125,26.366,39.602z M18.696,42.398c0.058,0.984,0.323,1.315,1.181,1.33
			c1.787,0.028,3.574,0.03,5.36-0.005c0.858-0.016,1.121-0.389,1.059-1.325C23.766,42.398,21.232,42.398,18.696,42.398z"/>
		<path fill-rule="evenodd" clip-rule="evenodd" fill="#529AEB" d="M21.856,1.987c0-0.438-0.081-0.897,0.028-1.305
			c0.071-0.266,0.42-0.457,0.644-0.682c0.22,0.229,0.609,0.444,0.631,0.69c0.074,0.897,0.065,1.809-0.006,2.708
			c-0.018,0.225-0.422,0.617-0.587,0.587c-0.264-0.049-0.611-0.35-0.677-0.606c-0.11-0.439-0.03-0.926-0.03-1.393
			C21.858,1.987,21.857,1.987,21.856,1.987z"/>
		<path fill-rule="evenodd" clip-rule="evenodd" fill="#529AEB" d="M1.98,23.191c-0.409,0-0.844,0.087-1.217-0.028
			C0.469,23.072,0.251,22.733,0,22.505c0.231-0.218,0.449-0.602,0.699-0.624c0.869-0.079,1.752-0.079,2.621-0.002
			c0.253,0.022,0.474,0.397,0.71,0.611c-0.246,0.233-0.456,0.589-0.745,0.671C2.88,23.277,2.418,23.191,1.98,23.191z"/>
		<path fill-rule="evenodd" clip-rule="evenodd" fill="#529AEB" d="M43.055,23.181c-0.468,0-0.955,0.081-1.394-0.031
			c-0.256-0.065-0.556-0.415-0.602-0.678c-0.03-0.166,0.363-0.57,0.586-0.587c0.929-0.066,1.868-0.065,2.796,0.006
			c0.216,0.017,0.558,0.404,0.559,0.623c0.002,0.218-0.318,0.576-0.553,0.63c-0.443,0.102-0.926,0.029-1.393,0.029
			C43.055,23.177,43.055,23.179,43.055,23.181z"/>
		<path fill-rule="evenodd" clip-rule="evenodd" fill="#529AEB" d="M6.821,13.146c-0.459,0.154-0.894,0.462-1.139,0.352
			c-0.87-0.393-1.697-0.898-2.487-1.438c-0.162-0.111-0.204-0.601-0.103-0.827c0.073-0.161,0.547-0.313,0.723-0.227
			C4.674,11.434,5.5,11.93,6.318,12.43C6.473,12.524,6.549,12.747,6.821,13.146z"/>
		<path fill-rule="evenodd" clip-rule="evenodd" fill="#529AEB" d="M42.1,11.698c-0.081,0.106-0.192,0.361-0.387,0.484
			c-0.711,0.45-1.429,0.905-2.191,1.25c-0.251,0.113-0.65-0.106-0.981-0.173c0.113-0.315,0.133-0.761,0.357-0.921
			c0.682-0.486,1.433-0.885,2.177-1.276C41.598,10.789,42.068,11.042,42.1,11.698z"/>
		<path fill-rule="evenodd" clip-rule="evenodd" fill="#529AEB" d="M5.935,31.3c0.266,0.252,0.537,0.393,0.59,0.592
			c0.055,0.205-0.029,0.583-0.184,0.682c-0.829,0.535-1.688,1.028-2.568,1.479c-0.157,0.08-0.544-0.046-0.662-0.2
			c-0.128-0.166-0.171-0.632-0.069-0.703C3.966,32.511,4.93,31.931,5.935,31.3z"/>
		<path fill-rule="evenodd" clip-rule="evenodd" fill="#529AEB" d="M42.239,33.625c-0.345,0.167-0.745,0.52-0.939,0.429
			c-0.896-0.415-1.75-0.927-2.576-1.468c-0.165-0.107-0.276-0.593-0.174-0.738c0.14-0.201,0.588-0.412,0.761-0.328
			c0.885,0.435,1.731,0.954,2.575,1.468C42.01,33.064,42.051,33.275,42.239,33.625z"/>
		<path fill-rule="evenodd" clip-rule="evenodd" fill="#529AEB" d="M11.735,2.949c0.103,0.085,0.345,0.211,0.471,0.411
			c0.437,0.693,0.884,1.39,1.217,2.134c0.116,0.26-0.085,0.662-0.141,0.999c-0.322-0.109-0.779-0.121-0.94-0.345
			c-0.491-0.688-0.894-1.444-1.283-2.198C10.787,3.428,11.065,2.953,11.735,2.949z"/>
		<path fill-rule="evenodd" clip-rule="evenodd" fill="#529AEB" d="M32.192,6.593c-0.675-0.089-0.895-0.466-0.659-0.944
			c0.41-0.839,0.889-1.65,1.416-2.421c0.121-0.176,0.628-0.269,0.821-0.16c0.182,0.102,0.332,0.594,0.238,0.791
			c-0.389,0.817-0.861,1.597-1.337,2.369C32.564,6.405,32.32,6.499,32.192,6.593z"/>
	</g>
</g>
</svg>
