<?xml version="1.0" encoding="utf-8"?>
<!-- Generator: Adobe Illustrator 16.0.0, SVG Export Plug-In . SVG Version: 6.00 Build 0)  -->
<!DOCTYPE svg PUBLIC "-//W3C//DTD SVG 1.1//EN" "http://www.w3.org/Graphics/SVG/1.1/DTD/svg11.dtd">
<svg version="1.1" xmlns="http://www.w3.org/2000/svg" xmlns:xlink="http://www.w3.org/1999/xlink" x="0px" y="0px" width="45px"
	 height="37.996px" viewBox="0 0 45 37.996" enable-background="new 0 0 45 37.996" xml:space="preserve">
<g id="imagem_fundo">
</g>
<g id="Fundo">
</g>
<g id="Layer_1">
	<g>
		<path fill-rule="evenodd" clip-rule="evenodd" fill="#529AEB" d="M1.763,25.653c13.854,0,27.609,0,41.476,0
			c0-0.333,0-0.643,0-0.954c0-6.589,0.001-13.18-0.001-19.769c0-2.173-0.98-3.14-3.178-3.141c-4.306-0.001-8.61,0-12.915-0.001
			c-0.234,0-0.531,0.085-0.69-0.025c-0.319-0.223-0.773-0.55-0.778-0.84c-0.005-0.292,0.443-0.624,0.748-0.87
			c0.126-0.102,0.396-0.025,0.602-0.025c4.394,0,8.786-0.003,13.18,0c2.998,0.002,4.792,1.808,4.793,4.825
			c0.003,9.431,0.002,18.861,0,28.292c-0.001,3.065-1.788,4.849-4.856,4.849c-11.774,0.002-23.548,0.002-35.321,0
			c-3.012,0-4.817-1.8-4.818-4.801c-0.003-9.46-0.003-18.92,0-28.38c0.001-2.957,1.81-4.781,4.744-4.785
			c4.423-0.005,8.846-0.001,13.268-0.001c0.176,0,0.353-0.007,0.527,0.006c0.555,0.042,0.951,0.373,0.839,0.893
			c-0.071,0.328-0.494,0.617-0.818,0.837c-0.161,0.11-0.456,0.024-0.689,0.024C13.508,1.789,9.145,1.786,4.779,1.79
			C2.782,1.791,1.764,2.815,1.764,4.826c-0.003,6.648-0.001,13.297-0.001,19.945C1.763,25.033,1.763,25.294,1.763,25.653z
			 M43.225,27.514c-13.879,0-27.648,0-41.405,0c-0.026,0.12-0.048,0.175-0.049,0.232c-0.004,1.756-0.008,3.512-0.008,5.269
			c0,2.253,0.955,3.219,3.185,3.219c11.71,0.001,23.419,0,35.128,0c0.264,0,0.529,0.012,0.79-0.016
			c1.241-0.13,2.301-1.106,2.341-2.349C43.273,31.768,43.225,29.664,43.225,27.514z"/>
		<path fill-rule="evenodd" clip-rule="evenodd" fill="#529AEB" d="M18,13.738c0-0.847-0.028-1.696,0.006-2.542
			c0.088-2.173,2-3.262,3.896-2.212c1.455,0.807,2.897,1.637,4.324,2.491c1.903,1.14,1.903,3.385,0,4.524
			c-1.427,0.854-2.869,1.685-4.324,2.491c-1.895,1.05-3.808-0.039-3.896-2.212C17.973,15.434,18,14.585,18,13.738z M19.763,13.698
			c0,0.817-0.021,1.635,0.006,2.452c0.03,0.923,0.521,1.218,1.319,0.774c1.426-0.794,2.842-1.61,4.241-2.449
			c0.747-0.448,0.745-1.025-0.005-1.475c-1.401-0.839-2.815-1.656-4.242-2.449c-0.794-0.441-1.284-0.14-1.313,0.783
			C19.743,12.121,19.763,12.91,19.763,13.698z"/>
		<path fill-rule="evenodd" clip-rule="evenodd" fill="#529AEB" d="M23.516,1.096c-0.337,0.228-0.706,0.668-1.004,0.625
			c-0.326-0.047-0.761-0.515-0.814-0.853c-0.037-0.229,0.484-0.754,0.783-0.776c0.326-0.024,0.685,0.379,1.028,0.597
			C23.511,0.825,23.514,0.96,23.516,1.096z"/>
		<path fill-rule="evenodd" clip-rule="evenodd" fill="#529AEB" d="M26.979,32.722c-3.422,0-6.844,0-10.266,0
			c-0.234,0-0.538,0.085-0.687-0.029c-0.31-0.237-0.707-0.564-0.74-0.888c-0.025-0.25,0.415-0.598,0.713-0.811
			c0.157-0.112,0.454-0.033,0.688-0.033c6.901,0,13.805,0,20.707,0c0.175,0,0.403-0.068,0.517,0.017
			c0.334,0.251,0.623,0.563,0.93,0.851c-0.298,0.296-0.567,0.635-0.907,0.871c-0.159,0.11-0.455,0.022-0.689,0.022
			C33.823,32.722,30.4,32.722,26.979,32.722z"/>
		<path fill-rule="evenodd" clip-rule="evenodd" fill="#529AEB" d="M11.422,31.813c0.016,1.435-1.152,2.637-2.587,2.663
			c-1.439,0.026-2.647-1.128-2.681-2.563c-0.035-1.483,1.147-2.703,2.624-2.706C10.217,29.205,11.405,30.377,11.422,31.813z
			 M8.973,30.837c-0.124,0.005-0.249,0.01-0.374,0.014c-0.227,0.32-0.674,0.682-0.624,0.951c0.063,0.341,0.497,0.779,0.837,0.845
			c0.221,0.044,0.77-0.486,0.785-0.78C9.615,31.536,9.2,31.181,8.973,30.837z"/>
	</g>
</g>
</svg>
