<?xml version="1.0" encoding="utf-8"?>
<!-- Generator: Adobe Illustrator 16.0.0, SVG Export Plug-In . SVG Version: 6.00 Build 0)  -->
<!DOCTYPE svg PUBLIC "-//W3C//DTD SVG 1.1//EN" "http://www.w3.org/Graphics/SVG/1.1/DTD/svg11.dtd">
<svg version="1.1" xmlns="http://www.w3.org/2000/svg" xmlns:xlink="http://www.w3.org/1999/xlink" x="0px" y="0px"
	 width="26.649px" height="20px" viewBox="0 0 26.649 20" enable-background="new 0 0 26.649 20" xml:space="preserve">
<g id="imagem_fundo">
</g>
<g id="Fundo">
</g>
<g id="Layer_1">
	<g>
		<path fill-rule="evenodd" clip-rule="evenodd" fill="#EB5269" d="M13.238,11.682c-3.743,0-7.488,0.003-11.233-0.002
			c-1.127-0.002-1.833-0.506-1.971-1.377c-0.148-0.925,0.377-1.719,1.293-1.921c0.249-0.054,0.515-0.061,0.773-0.061
			C9.589,8.318,17.078,8.318,24.568,8.32c1.229,0,1.947,0.515,2.057,1.455c0.129,1.124-0.632,1.896-1.92,1.902
			c-2.419,0.013-4.836,0.004-7.254,0.004C16.046,11.682,14.643,11.682,13.238,11.682z"/>
		<path fill-rule="evenodd" clip-rule="evenodd" fill="#EB5269" d="M13.263,3.324c-3.667,0-7.331,0.001-10.998,0
			c-0.26,0-0.522,0.009-0.779-0.018c-0.84-0.085-1.433-0.717-1.472-1.545c-0.038-0.859,0.524-1.585,1.362-1.733
			C1.58-0.007,1.791,0.001,1.998,0.001C9.565,0,17.132,0,24.697,0.002c1.045,0,1.721,0.455,1.904,1.26
			c0.246,1.086-0.479,2.032-1.639,2.05c-1.975,0.029-3.951,0.01-5.927,0.011C17.112,3.325,15.187,3.324,13.263,3.324z"/>
		<path fill-rule="evenodd" clip-rule="evenodd" fill="#EB5269" d="M13.388,16.676c3.718,0,7.438-0.003,11.154,0.005
			c0.36,0.001,0.738,0.01,1.073,0.122c0.708,0.238,1.098,0.964,1.01,1.747c-0.08,0.706-0.629,1.296-1.352,1.421
			c-0.203,0.035-0.414,0.027-0.623,0.027c-7.565,0.001-15.133,0.002-22.698,0c-1.043,0-1.722-0.458-1.903-1.262
			c-0.253-1.114,0.498-2.042,1.715-2.053c2.236-0.02,4.473-0.007,6.709-0.007C10.111,16.676,11.749,16.676,13.388,16.676z"/>
	</g>
</g>
</svg>
