<?xml version="1.0" encoding="utf-8"?>
<!-- Generator: Adobe Illustrator 16.0.0, SVG Export Plug-In . SVG Version: 6.00 Build 0)  -->
<!DOCTYPE svg PUBLIC "-//W3C//DTD SVG 1.1//EN" "http://www.w3.org/Graphics/SVG/1.1/DTD/svg11.dtd">
<svg version="1.1" xmlns="http://www.w3.org/2000/svg" xmlns:xlink="http://www.w3.org/1999/xlink" x="0px" y="0px" width="69.39px"
	 height="29.189px" viewBox="0 0 69.39 29.189" enable-background="new 0 0 69.39 29.189" xml:space="preserve">
<g id="imagem_fundo">
</g>
<g id="Fundo">
</g>
<g id="Layer_1">
	<g>
		<path fill="#EB5269" d="M30.534,10.376c0.161,0.151,0.241,0.352,0.241,0.6v3.629c0,0.82-0.246,1.441-0.74,1.864
			c-0.494,0.424-1.219,0.636-2.172,0.636c-0.37,0-0.72-0.034-1.049-0.101c-0.329-0.067-0.607-0.165-0.836-0.293
			c-0.121-0.067-0.217-0.154-0.288-0.263c-0.071-0.106-0.105-0.228-0.105-0.362c0-0.194,0.049-0.353,0.146-0.474
			c0.098-0.121,0.224-0.182,0.378-0.182c0.121,0,0.34,0.051,0.655,0.151c0.209,0.066,0.394,0.119,0.555,0.156
			s0.326,0.056,0.494,0.056c0.41,0,0.711-0.086,0.902-0.257c0.191-0.172,0.287-0.442,0.287-0.812v-0.383
			c-0.148,0.222-0.359,0.397-0.635,0.529c-0.276,0.131-0.575,0.196-0.897,0.196c-0.431,0-0.813-0.102-1.149-0.303
			s-0.598-0.488-0.786-0.861s-0.282-0.805-0.282-1.296c0-0.49,0.094-0.924,0.282-1.3s0.45-0.667,0.786-0.872
			s0.719-0.308,1.149-0.308c0.329,0,0.632,0.067,0.907,0.202s0.486,0.319,0.635,0.554c0.014-0.228,0.1-0.408,0.258-0.539
			c0.156-0.131,0.363-0.196,0.619-0.196C30.157,10.149,30.373,10.225,30.534,10.376 M28.75,13.436
			c0.174-0.195,0.262-0.471,0.262-0.827s-0.088-0.635-0.262-0.836c-0.176-0.202-0.42-0.303-0.736-0.303
			c-0.309,0-0.551,0.1-0.726,0.298s-0.263,0.478-0.263,0.841c0,0.35,0.089,0.624,0.268,0.822c0.178,0.198,0.418,0.297,0.721,0.297
			C28.33,13.728,28.574,13.63,28.75,13.436"/>
		<path fill="#EB5269" d="M32.887,14.973c-0.412-0.212-0.732-0.513-0.957-0.902c-0.226-0.39-0.338-0.847-0.338-1.371
			c0-0.523,0.112-0.979,0.338-1.365c0.225-0.387,0.543-0.684,0.953-0.893c0.408-0.208,0.89-0.313,1.441-0.313
			c0.551,0,1.031,0.104,1.441,0.313c0.409,0.209,0.727,0.506,0.952,0.893c0.225,0.386,0.337,0.842,0.337,1.365
			c0,0.524-0.112,0.981-0.337,1.371c-0.226,0.39-0.543,0.69-0.952,0.902c-0.41,0.211-0.891,0.317-1.441,0.317
			C33.779,15.29,33.301,15.184,32.887,14.973 M35.281,12.699c0-0.832-0.318-1.25-0.957-1.25s-0.958,0.418-0.958,1.25
			c0,0.833,0.319,1.25,0.958,1.25S35.281,13.532,35.281,12.699"/>
		<path fill="#EB5269" d="M38.244,15.018c-0.168-0.168-0.252-0.39-0.252-0.665V8.96c0-0.275,0.074-0.487,0.222-0.635
			s0.36-0.222,0.636-0.222h3.387c0.302,0,0.523,0.059,0.664,0.176c0.143,0.118,0.213,0.305,0.213,0.56
			c0,0.249-0.072,0.431-0.217,0.544c-0.145,0.115-0.365,0.172-0.66,0.172h-2.42v1.311h2.219c0.295,0,0.515,0.061,0.659,0.182
			c0.145,0.12,0.217,0.306,0.217,0.554s-0.072,0.431-0.217,0.544c-0.145,0.114-0.364,0.172-0.659,0.172h-2.219v2.036
			c0,0.282-0.082,0.506-0.246,0.671c-0.165,0.164-0.385,0.246-0.661,0.246C38.635,15.27,38.412,15.186,38.244,15.018"/>
		<path fill="#EB5269" d="M43.953,15.063c-0.17-0.138-0.256-0.345-0.256-0.62V8.89c0-0.276,0.086-0.484,0.256-0.625
			c0.173-0.142,0.386-0.212,0.642-0.212c0.255,0,0.468,0.07,0.64,0.212c0.171,0.141,0.258,0.349,0.258,0.625v5.554
			c0,0.275-0.087,0.482-0.258,0.62c-0.172,0.138-0.385,0.206-0.64,0.206C44.339,15.27,44.126,15.201,43.953,15.063"/>
		<path fill="#EB5269" d="M51.287,10.371c0.161,0.148,0.242,0.35,0.242,0.604v3.487c0,0.235-0.084,0.429-0.252,0.58
			s-0.388,0.228-0.655,0.228c-0.242,0-0.44-0.066-0.595-0.197c-0.155-0.131-0.236-0.308-0.242-0.529
			c-0.155,0.242-0.352,0.427-0.59,0.555s-0.513,0.191-0.821,0.191c-0.638,0-1.112-0.177-1.421-0.529
			c-0.31-0.353-0.464-0.889-0.464-1.607v-2.178c0-0.255,0.08-0.456,0.241-0.604c0.162-0.147,0.38-0.222,0.656-0.222
			c0.275,0,0.493,0.074,0.654,0.222c0.162,0.148,0.242,0.35,0.242,0.604v2.218c0,0.483,0.209,0.726,0.625,0.726
			c0.242,0,0.44-0.087,0.594-0.262c0.154-0.175,0.232-0.403,0.232-0.686v-1.996c0-0.255,0.081-0.456,0.242-0.604
			c0.162-0.147,0.379-0.222,0.655-0.222C50.907,10.149,51.125,10.224,51.287,10.371"/>
		<path fill="#EB5269" d="M57.395,14.483c0,0.208-0.08,0.393-0.242,0.555c-0.16,0.161-0.349,0.242-0.563,0.242
			c-0.223,0-0.422-0.091-0.596-0.272l-1.18-1.229l-1.169,1.229c-0.175,0.182-0.373,0.272-0.595,0.272
			c-0.215,0-0.402-0.081-0.564-0.242c-0.161-0.162-0.242-0.347-0.242-0.555c0-0.215,0.084-0.406,0.252-0.574l1.25-1.25l-1.148-1.129
			c-0.169-0.168-0.252-0.359-0.252-0.574s0.078-0.403,0.236-0.565c0.158-0.16,0.345-0.241,0.56-0.241
			c0.229,0,0.427,0.095,0.595,0.282l1.078,1.099l1.088-1.099c0.176-0.182,0.374-0.271,0.596-0.271c0.215,0,0.401,0.079,0.559,0.236
			c0.158,0.157,0.238,0.341,0.238,0.549c0,0.215-0.084,0.41-0.252,0.585l-1.15,1.129l1.25,1.25
			C57.311,14.077,57.395,14.269,57.395,14.483"/>
		<path fill="#EB5269" d="M32.499,26.538c0,0.223-0.089,0.41-0.267,0.564c-0.179,0.155-0.382,0.232-0.609,0.232
			c-0.155,0-0.297-0.04-0.424-0.121c-0.128-0.081-0.229-0.202-0.303-0.362l-0.453-1.019h-3.266l-0.465,1.019
			c-0.073,0.16-0.176,0.281-0.307,0.362s-0.273,0.121-0.428,0.121c-0.229,0-0.436-0.077-0.621-0.232
			c-0.185-0.154-0.276-0.342-0.276-0.564c0-0.12,0.03-0.245,0.091-0.372l2.661-5.463c0.087-0.183,0.216-0.321,0.388-0.419
			c0.171-0.098,0.361-0.146,0.569-0.146c0.202,0,0.39,0.049,0.564,0.146s0.306,0.236,0.394,0.419l2.66,5.463
			C32.469,26.293,32.499,26.418,32.499,26.538 M27.803,24.442h2.015l-1.007-2.248L27.803,24.442z"/>
		<path fill="#EB5269" d="M33.628,26.7c-0.471-0.457-0.706-1.079-0.706-1.865c0-0.518,0.115-0.974,0.344-1.371
			c0.229-0.396,0.549-0.701,0.963-0.917c0.412-0.215,0.885-0.322,1.416-0.322c0.281,0,0.564,0.037,0.846,0.11
			c0.282,0.074,0.531,0.179,0.746,0.313c0.208,0.128,0.313,0.322,0.313,0.584c0,0.208-0.049,0.378-0.146,0.509
			c-0.098,0.132-0.223,0.197-0.377,0.197c-0.102,0-0.199-0.016-0.293-0.046s-0.197-0.075-0.313-0.137
			c-0.134-0.06-0.249-0.105-0.343-0.136c-0.095-0.029-0.198-0.045-0.312-0.045c-0.666,0-0.998,0.406-0.998,1.22
			c0,0.403,0.085,0.71,0.256,0.922c0.172,0.212,0.418,0.317,0.742,0.317c0.113,0,0.219-0.015,0.316-0.045s0.207-0.075,0.328-0.137
			c0.135-0.06,0.243-0.105,0.328-0.136c0.083-0.03,0.176-0.045,0.277-0.045c0.153,0,0.279,0.065,0.377,0.196s0.146,0.301,0.146,0.51
			c0,0.127-0.027,0.243-0.081,0.347c-0.054,0.104-0.128,0.184-0.222,0.237c-0.464,0.282-1.027,0.423-1.693,0.423
			C34.737,27.385,34.099,27.157,33.628,26.7"/>
		<path fill="#EB5269" d="M42.201,22.773c0.365,0.367,0.549,0.923,0.549,1.669v2.106c0,0.255-0.076,0.455-0.227,0.6
			s-0.361,0.217-0.631,0.217c-0.234,0-0.428-0.067-0.579-0.201c-0.151-0.135-0.233-0.316-0.247-0.545
			c-0.094,0.242-0.252,0.43-0.474,0.564s-0.487,0.201-0.796,0.201c-0.343,0-0.652-0.069-0.928-0.206
			c-0.275-0.138-0.492-0.329-0.65-0.574c-0.156-0.246-0.236-0.522-0.236-0.832c0-0.356,0.092-0.64,0.277-0.852
			c0.185-0.212,0.479-0.365,0.881-0.458c0.404-0.095,0.948-0.142,1.634-0.142h0.272V24.2c0-0.235-0.054-0.405-0.161-0.509
			c-0.108-0.104-0.289-0.156-0.544-0.156c-0.275,0-0.68,0.094-1.211,0.282c-0.154,0.054-0.285,0.08-0.393,0.08
			c-0.168,0-0.303-0.061-0.402-0.181c-0.102-0.121-0.152-0.279-0.152-0.475c0-0.147,0.03-0.268,0.092-0.362
			c0.061-0.094,0.156-0.179,0.291-0.252c0.236-0.121,0.531-0.219,0.888-0.293c0.356-0.073,0.705-0.11,1.048-0.11
			C41.269,22.225,41.834,22.408,42.201,22.773 M40.814,25.929c0.154-0.172,0.232-0.392,0.232-0.66v-0.121h-0.161
			c-0.431,0-0.736,0.038-0.918,0.116c-0.181,0.077-0.272,0.206-0.272,0.388c0,0.155,0.049,0.282,0.146,0.383
			s0.225,0.151,0.379,0.151C40.462,26.186,40.66,26.1,40.814,25.929"/>
		<path fill="#EB5269" d="M48.752,20.375c0.172,0.151,0.258,0.345,0.258,0.579v5.584c0,0.256-0.082,0.457-0.242,0.605
			c-0.161,0.147-0.377,0.222-0.646,0.222c-0.249,0-0.452-0.065-0.609-0.197c-0.158-0.131-0.247-0.311-0.268-0.539
			c-0.142,0.235-0.348,0.42-0.62,0.555c-0.271,0.135-0.572,0.201-0.902,0.201c-0.424,0-0.801-0.108-1.133-0.327
			c-0.333-0.218-0.594-0.525-0.781-0.923c-0.189-0.396-0.283-0.85-0.283-1.36c0-0.51,0.093-0.959,0.277-1.346
			c0.186-0.386,0.444-0.684,0.777-0.892c0.332-0.209,0.713-0.313,1.143-0.313c0.316,0,0.607,0.063,0.873,0.191
			c0.265,0.128,0.471,0.299,0.619,0.514v-2.006c0-0.234,0.078-0.423,0.237-0.564c0.157-0.141,0.371-0.211,0.64-0.211
			C48.361,20.148,48.58,20.224,48.752,20.375 M46.993,25.722c0.167-0.214,0.252-0.523,0.252-0.927c0-0.396-0.085-0.7-0.252-0.912
			c-0.168-0.212-0.409-0.317-0.726-0.317c-0.31,0-0.548,0.104-0.716,0.312c-0.168,0.209-0.253,0.508-0.253,0.897
			c0,0.403,0.087,0.716,0.258,0.938c0.172,0.222,0.409,0.333,0.711,0.333C46.584,26.045,46.825,25.937,46.993,25.722"/>
		<path fill="#EB5269" d="M54.467,25.894c0.098,0.12,0.146,0.279,0.146,0.474c0,0.269-0.131,0.474-0.393,0.614
			c-0.229,0.115-0.5,0.211-0.813,0.288s-0.599,0.115-0.861,0.115c-0.551,0-1.031-0.104-1.441-0.313
			c-0.41-0.208-0.726-0.507-0.947-0.896c-0.221-0.39-0.333-0.847-0.333-1.371c0-0.497,0.106-0.942,0.317-1.336
			c0.213-0.393,0.508-0.698,0.888-0.917c0.38-0.218,0.808-0.327,1.285-0.327c0.463,0,0.87,0.101,1.22,0.302
			c0.35,0.202,0.619,0.488,0.811,0.857c0.191,0.37,0.287,0.803,0.287,1.3c0,0.155-0.035,0.274-0.105,0.358s-0.174,0.126-0.307,0.126
			H51.56c0.047,0.322,0.151,0.554,0.312,0.695c0.162,0.141,0.4,0.212,0.716,0.212c0.168,0,0.323-0.019,0.464-0.056
			s0.299-0.089,0.474-0.156c0.101-0.04,0.2-0.076,0.298-0.106c0.098-0.029,0.186-0.045,0.268-0.045
			C54.243,25.712,54.369,25.772,54.467,25.894 M51.801,23.661c-0.141,0.151-0.225,0.371-0.251,0.66h1.581
			c-0.039-0.592-0.295-0.887-0.766-0.887C52.131,23.435,51.942,23.51,51.801,23.661"/>
		<path fill="#EB5269" d="M63.039,22.714c0.296,0.325,0.444,0.874,0.444,1.647v2.177c0,0.275-0.086,0.482-0.257,0.62
			c-0.172,0.138-0.386,0.207-0.641,0.207s-0.469-0.069-0.64-0.207c-0.172-0.138-0.258-0.345-0.258-0.62v-2.217
			c0-0.269-0.047-0.458-0.14-0.565c-0.096-0.106-0.232-0.16-0.414-0.16c-0.235,0-0.424,0.084-0.564,0.252s-0.212,0.4-0.212,0.695
			v1.995c0,0.275-0.084,0.482-0.252,0.62s-0.383,0.207-0.646,0.207c-0.256,0-0.469-0.069-0.641-0.207
			c-0.17-0.138-0.256-0.345-0.256-0.62v-2.217c0-0.269-0.047-0.458-0.142-0.565c-0.094-0.106-0.231-0.16-0.413-0.16
			c-0.235,0-0.422,0.084-0.559,0.252c-0.139,0.168-0.207,0.4-0.207,0.695v1.995c0,0.275-0.086,0.482-0.258,0.62
			c-0.171,0.138-0.385,0.207-0.639,0.207c-0.257,0-0.47-0.069-0.641-0.207c-0.172-0.138-0.258-0.345-0.258-0.62v-3.486
			c0-0.263,0.09-0.463,0.268-0.6c0.178-0.139,0.391-0.207,0.641-0.207c0.234,0,0.431,0.062,0.589,0.187
			c0.157,0.124,0.24,0.304,0.247,0.539c0.329-0.498,0.834-0.746,1.512-0.746c0.72,0,1.199,0.292,1.441,0.877
			c0.168-0.269,0.394-0.481,0.676-0.64c0.281-0.158,0.602-0.237,0.957-0.237C62.324,22.225,62.744,22.388,63.039,22.714"/>
		<path fill="#EB5269" d="M68.109,22.376c0.128-0.081,0.269-0.121,0.424-0.121c0.221,0,0.419,0.073,0.595,0.222
			c0.174,0.147,0.262,0.326,0.262,0.534c0,0.114-0.026,0.226-0.081,0.333l-2.671,5.352c-0.081,0.168-0.187,0.292-0.317,0.373
			s-0.273,0.121-0.429,0.121c-0.222,0-0.419-0.072-0.59-0.217s-0.257-0.321-0.257-0.529c0-0.114,0.03-0.231,0.091-0.353l0.655-1.32
			l-1.713-3.427c-0.055-0.121-0.08-0.229-0.08-0.323c0-0.215,0.093-0.398,0.281-0.549c0.188-0.151,0.399-0.227,0.635-0.227
			c0.161,0,0.311,0.042,0.449,0.126c0.137,0.083,0.243,0.209,0.317,0.377l1.068,2.318l1.058-2.318
			C67.881,22.58,67.982,22.456,68.109,22.376"/>
		<path fill="#EB5269" d="M4.431,16.837c0,1.223-0.991,2.214-2.214,2.214s-2.215-0.991-2.215-2.214c0-1.224,0.992-2.215,2.215-2.215
			S4.431,15.613,4.431,16.837"/>
		<path fill="#EB5269" d="M20.596,16.837c0,1.223-0.992,2.214-2.215,2.214s-2.215-0.991-2.215-2.214
			c0-1.224,0.992-2.215,2.215-2.215S20.596,15.613,20.596,16.837"/>
		<path fill="#EB5269" d="M19.953,20.957h-3.146c-0.354,0-0.641,0.287-0.641,0.641v1.374H12.58V8.012l4.332,4.032
			c0.893,0.831,2.291,0.78,3.123-0.112c0.396-0.426,0.592-0.966,0.592-1.505c0-0.592-0.236-1.184-0.704-1.618L10.459,0L0.824,8.794
			c-0.9,0.822-0.965,2.22-0.143,3.122c0.823,0.9,2.221,0.965,3.122,0.143L8.152,8.09v14.882H4.43v-1.374
			c0-0.354-0.287-0.641-0.641-0.641H0.643c-0.354,0-0.641,0.287-0.641,0.641v1.924C0.002,23.524,0,23.527,0,23.529v3.313
			C0,27.15,0.25,27.4,0.559,27.4h19.478c0.308,0,0.558-0.25,0.558-0.558v-0.262c0-0.003,0-0.005,0-0.008v-4.976
			C20.594,21.244,20.307,20.957,19.953,20.957"/>
	</g>
</g>
</svg>
